<svg version="1.0" xmlns="http://www.w3.org/2000/svg"
 width="2048.000000pt" height="2048.000000pt" viewBox="0 0 2048.000000 2048.000000"
 preserveAspectRatio="xMidYMid meet">

<g transform="translate(0.000000,2048.000000) scale(0.100000,-0.100000)"
fill="#000000" stroke="none">
<path d="M0 10240 l0 -10240 10240 0 10240 0 0 10240 0 10240 -10240 0 -10240
0 0 -10240z m19610 -3 l0 -9623 -9582 3 -9583 3 -3 9620 -2 9620 9585 0 9585
0 0 -9623z"/>
<path d="M520 19633 c0 -87 -2 -718 -4 -1403 -2 -685 -4 -1969 -4 -2855 1
-885 1 -4552 1 -8148 l0 -6537 1464 -1 c805 0 1661 -1 1903 -1 242 0 3864 1
8048 1 l7609 1 -1 9547 -1 9548 -9507 3 -9508 2 0 -157z m11949 -3693 c12
-173 35 -508 51 -745 16 -236 39 -574 50 -750 11 -176 22 -340 25 -365 3 -25
12 -153 20 -285 8 -132 18 -257 21 -277 5 -33 3 -38 -18 -42 -704 -147 -1421
-510 -1872 -946 -115 -112 -242 -257 -232 -267 2 -3 33 15 68 40 206 146 564
337 891 476 297 126 732 264 979 311 99 19 162 25 128 13 -13 -5 -129 -50
-430 -168 -47 -18 -115 -45 -152 -60 -37 -14 -73 -23 -79 -19 -7 4 -9 3 -5 -4
3 -6 -4 -14 -16 -18 -30 -9 -629 -267 -773 -332 -60 -27 -168 -77 -240 -109
-71 -33 -211 -103 -311 -156 -221 -117 -260 -130 -357 -125 -81 4 -65 -3 -377
160 -184 96 -487 238 -715 333 -82 35 -242 102 -355 150 -248 105 -734 301
-850 343 -47 17 -80 31 -73 31 6 1 99 -17 206 -39 501 -102 1098 -334 1582
-613 84 -48 324 -207 331 -219 3 -4 10 -8 15 -8 30 0 -244 289 -391 412 -211
177 -445 326 -745 473 -268 131 -542 230 -858 311 l-149 37 6 76 c25 312 62
836 91 1296 8 127 24 352 35 500 11 149 26 383 35 520 22 346 25 375 42 375
14 0 177 -38 203 -47 8 -3 26 -7 39 -9 85 -11 427 -115 613 -186 312 -119 623
-277 880 -449 153 -102 214 -149 350 -266 60 -51 111 -93 114 -93 4 0 39 31
79 68 197 188 550 422 870 577 371 179 711 294 1185 398 36 8 66 14 67 13 1
-1 11 -143 22 -316z m-4678 -440 c10 -6 26 -24 35 -41 17 -33 14 -88 -41 -924
-13 -203 -34 -521 -45 -705 -11 -184 -29 -433 -38 -554 l-18 -218 20 -8 c12
-5 120 -47 241 -95 121 -47 352 -138 513 -202 286 -114 293 -118 288 -142 -9
-44 -58 -570 -54 -586 2 -12 29 0 109 48 l106 63 79 -93 c43 -50 82 -92 85
-92 8 -1 21 84 51 327 13 107 26 182 32 182 6 0 54 -19 106 -41 52 -23 176
-74 275 -114 303 -124 372 -159 388 -197 20 -48 84 -107 147 -137 49 -23 67
-26 165 -26 90 1 120 5 166 23 69 27 140 88 164 139 21 45 25 48 90 69 28 10
138 54 245 99 237 101 700 292 987 410 117 47 218 83 224 79 7 -4 9 -3 6 3 -8
12 12 20 323 144 123 49 231 87 238 84 7 -2 11 -1 8 4 -3 4 22 20 56 34 l61
27 -6 47 c-4 27 -11 113 -17 193 -6 80 -21 291 -35 470 -13 179 -34 476 -45
660 -11 184 -29 454 -40 600 -25 334 -26 415 -9 436 18 22 64 44 91 44 46 0
50 -11 59 -156 5 -77 18 -274 29 -439 11 -165 34 -516 50 -780 17 -264 41
-640 54 -835 13 -195 21 -359 19 -363 -3 -5 -14 -7 -24 -4 -11 3 -17 2 -15 -2
5 -7 -611 -256 -649 -263 -11 -1 -26 -9 -33 -15 -16 -15 -36 -17 -27 -3 3 6 1
10 -4 10 -6 0 -11 -6 -11 -13 0 -10 -1008 -424 -1419 -583 -77 -29 -89 -38
-135 -95 -85 -104 -182 -158 -325 -180 -202 -31 -386 52 -496 224 -12 19 -607
260 -616 249 -3 -4 -18 -104 -32 -222 -15 -118 -31 -228 -35 -243 l-7 -28 -70
73 c-39 40 -93 99 -120 131 l-50 58 -50 -32 c-65 -41 -223 -129 -233 -129 -10
0 -5 69 24 365 13 137 20 252 16 256 -4 4 -50 23 -102 42 -52 20 -250 97 -440
172 -190 74 -398 156 -462 182 l-118 46 0 38 c0 21 7 137 15 256 41 588 56
818 70 1038 8 132 26 402 40 600 14 198 29 420 34 492 5 73 12 137 16 143 8
13 71 13 96 0z m-3047 -5059 c69 -27 129 -78 159 -135 17 -33 22 -58 22 -126
0 -68 -5 -93 -22 -126 -27 -51 -90 -108 -137 -125 -46 -17 -46 -25 2 -32 99
-16 207 -123 233 -231 34 -139 -38 -304 -161 -366 -88 -45 -137 -50 -462 -50
-284 0 -364 7 -273 24 47 9 92 50 105 94 6 23 10 217 10 505 0 508 1 501 -56
546 -15 12 -40 21 -55 21 -20 0 -29 5 -29 16 0 14 31 15 303 12 288 -4 305 -5
361 -27z m5374 -3 c-3 -7 -18 -15 -34 -19 -16 -3 -41 -13 -55 -22 -54 -36 -54
-33 -57 -563 -2 -448 -1 -493 14 -509 15 -14 39 -16 194 -13 l177 3 37 29 c26
19 49 51 70 97 17 38 37 68 44 69 15 0 15 6 -4 -104 -8 -50 -17 -106 -20 -123
l-5 -33 -404 0 c-223 0 -405 3 -405 8 0 4 21 14 47 22 34 11 54 25 70 49 l23
34 0 486 c0 464 -1 487 -19 515 -23 34 -56 55 -88 56 -23 0 -37 13 -26 24 3 3
105 6 226 6 168 0 218 -3 215 -12z m-4132 -98 c114 -29 178 -64 254 -139 112
-110 162 -238 162 -411 0 -122 -21 -200 -77 -295 -105 -175 -277 -266 -505
-267 -85 0 -120 5 -182 25 -177 57 -309 189 -364 366 -22 69 -28 205 -14 290
53 316 390 516 726 431z m1399 0 c135 -34 237 -102 311 -206 146 -204 136
-504 -22 -707 -47 -60 -162 -138 -251 -168 -58 -21 -87 -24 -203 -24 -121 0
-142 3 -207 26 -224 82 -363 286 -363 534 0 194 85 361 235 465 131 90 334
123 500 80z m4030 5 c141 -37 248 -108 320 -214 176 -257 117 -620 -130 -796
-97 -70 -185 -98 -321 -103 -160 -6 -281 29 -391 113 -221 169 -278 523 -123
765 65 101 205 200 331 234 73 20 240 20 314 1z m4658 -14 l67 -22 0 -114 c0
-95 -3 -115 -15 -115 -8 0 -18 12 -21 28 -22 89 -90 169 -163 191 -86 25 -204
-1 -253 -55 -26 -29 -48 -89 -48 -129 0 -84 47 -127 257 -233 179 -91 240
-138 279 -218 24 -49 26 -63 22 -133 -4 -61 -10 -88 -31 -123 -74 -127 -240
-202 -408 -184 -35 4 -107 21 -159 39 l-95 32 -3 123 c-2 115 -2 122 17 122
15 0 21 -9 26 -38 14 -88 90 -178 172 -208 86 -30 217 -9 276 44 30 27 58 89
64 142 7 61 -22 127 -76 169 -21 16 -107 64 -193 106 -224 110 -278 171 -278
317 0 123 76 218 214 270 70 26 251 20 349 -11z m-7643 -1 c0 -11 -7 -14 -52
-24 -15 -4 -35 -20 -47 -40 -20 -32 -21 -46 -19 -243 l3 -208 189 190 c104
105 197 204 207 220 28 45 25 75 -11 88 -16 6 -30 15 -30 19 0 4 74 8 165 8
140 0 165 -2 165 -15 0 -9 -9 -15 -23 -15 -51 0 -113 -53 -461 -390 l-48 -47
103 -114 c57 -63 159 -177 225 -254 147 -170 178 -199 227 -220 63 -26 44 -35
-73 -35 l-110 0 -47 43 c-25 23 -118 123 -207 222 -88 99 -186 206 -217 238
l-56 58 -6 -203 c-5 -135 -3 -216 4 -242 13 -47 50 -83 95 -92 82 -15 19 -24
-176 -24 -115 0 -210 3 -210 8 0 4 21 14 47 22 89 29 85 6 86 513 2 437 2 446
-19 474 -12 15 -39 34 -62 41 -23 8 -42 18 -42 23 0 5 87 9 200 9 131 0 200
-4 200 -10z m3930 -5 c0 -9 -9 -15 -25 -15 -35 0 -75 -42 -75 -77 0 -16 37
-116 83 -223 46 -107 117 -275 158 -372 41 -98 78 -177 82 -175 5 1 20 36 34
77 14 41 64 170 111 285 126 313 152 383 152 409 0 34 -30 67 -69 75 -19 3
-36 12 -39 19 -3 9 34 12 152 12 120 0 156 -3 156 -13 0 -7 -13 -17 -28 -23
-16 -6 -41 -27 -56 -47 -16 -20 -104 -220 -196 -444 -253 -613 -250 -608 -284
-573 -19 20 -258 554 -385 860 -53 128 -88 180 -132 199 -21 9 -39 22 -39 29
0 9 47 12 200 12 171 0 200 -2 200 -15z m1634 -1 c3 -9 6 -58 6 -110 0 -74 -3
-94 -14 -94 -8 0 -17 15 -20 35 -4 19 -18 48 -33 65 -46 56 -65 60 -258 60
l-175 0 2 -222 3 -223 136 1 c167 1 195 12 219 87 8 26 21 47 28 47 15 0 18
-305 2 -315 -5 -3 -21 19 -34 49 -13 30 -33 59 -44 65 -12 7 -82 11 -171 11
l-151 0 0 -205 c0 -217 5 -245 47 -264 31 -14 276 -14 342 0 58 12 88 42 129
126 27 54 59 74 49 31 -3 -13 -15 -67 -27 -120 l-22 -98 -394 0 c-234 0 -394
4 -394 9 0 5 15 14 34 21 18 6 44 22 57 36 l24 26 3 426 c2 285 0 439 -8 464
-12 42 -52 78 -86 78 -15 0 -24 6 -24 15 0 13 49 15 384 15 341 0 385 -2 390
-16z m855 6 c148 -25 245 -116 258 -245 7 -70 -17 -150 -62 -202 -35 -41 -141
-103 -177 -103 -10 0 -18 -2 -18 -5 0 -3 20 -31 44 -62 24 -32 88 -121 142
-198 118 -167 165 -217 225 -236 70 -22 44 -34 -69 -32 -153 2 -161 9 -374
315 -60 87 -119 165 -131 173 -13 9 -43 15 -75 15 l-53 0 3 -205 3 -205 26
-26 c15 -14 41 -29 59 -33 19 -3 35 -12 38 -19 3 -9 -43 -12 -197 -12 -172 0
-201 2 -201 15 0 9 10 15 26 15 38 0 64 18 80 55 22 53 21 848 -2 904 -15 39
-60 71 -97 71 -18 0 -30 14 -20 24 11 10 503 7 572 -4z m-3365 -1912 c10 -6
31 -8 46 -4 28 5 28 5 23 -37 -8 -61 -19 -77 -28 -39 -7 34 -44 66 -87 77 -46
12 -110 -14 -155 -61 -84 -87 -85 -212 -4 -289 26 -24 41 -30 76 -30 58 0 82
24 91 92 6 49 5 53 -17 62 -18 7 -2 10 61 9 47 0 76 -3 65 -5 -33 -8 -43 -21
-50 -71 -9 -63 -19 -78 -56 -91 -44 -15 -153 -14 -192 3 -91 38 -130 161 -81
257 57 114 211 177 308 127z m2772 -72 c-15 -60 -66 -274 -66 -281 0 -2 10 -5
23 -7 20 -3 19 -5 -13 -26 -44 -28 -50 -28 -50 3 0 14 -3 25 -6 25 -3 0 -20
-11 -38 -25 -52 -39 -95 -30 -115 25 -33 97 70 230 180 230 16 0 29 5 30 13 0
6 4 34 8 61 8 44 6 49 -13 55 -15 4 -9 7 24 11 55 6 58 -1 36 -84z m-8322 50
c77 -41 105 -161 59 -251 -25 -48 -44 -65 -103 -96 -38 -19 -63 -23 -170 -26
-98 -2 -120 -1 -103 8 18 10 28 36 53 143 18 72 34 155 37 184 5 46 4 52 -13
53 -10 1 -3 5 16 9 60 13 181 0 224 -24z m2386 22 c0 -4 -7 -8 -15 -8 -9 0
-18 -6 -21 -14 -6 -16 57 -168 68 -164 4 2 35 39 68 83 l61 79 -23 18 c-23 17
-22 18 42 17 56 0 62 -1 43 -12 -21 -12 -85 -92 -151 -189 -33 -47 -68 -158
-58 -183 2 -7 15 -15 28 -18 13 -2 -15 -5 -62 -5 -66 0 -79 2 -59 9 35 13 54
59 54 134 0 51 -7 74 -43 148 -24 48 -51 91 -60 95 -11 4 4 9 38 12 78 7 90 7
90 -2z m1435 -11 c7 -9 40 -69 75 -132 34 -63 66 -118 71 -121 12 -7 23 25 48
141 l20 100 -22 17 c-21 17 -20 18 43 17 62 0 64 0 39 -14 -30 -16 -54 -91
-93 -289 l-22 -109 -66 114 c-36 63 -78 138 -93 168 -33 67 -36 63 -70 -90
-30 -135 -32 -176 -7 -182 9 -3 -10 -5 -43 -6 -54 -1 -58 0 -35 12 21 11 29
30 57 147 18 74 35 154 39 177 6 39 4 43 -20 53 -14 5 -26 11 -26 12 0 2 21 3
46 2 31 0 51 -6 59 -17z m3474 -2 c54 -28 65 -76 31 -133 -11 -18 -38 -41 -59
-50 l-39 -18 50 -84 c28 -47 56 -88 62 -93 6 -4 -9 -6 -33 -5 l-45 3 -47 90
c-33 64 -52 91 -67 93 -15 2 -23 -3 -26 -20 -20 -91 -26 -137 -20 -151 5 -15
-2 -17 -62 -16 -58 1 -64 2 -38 10 31 9 31 9 63 161 48 226 46 209 22 215 -49
13 -14 21 79 17 64 -2 110 -9 129 -19z m-7022 -11 c7 -18 -6 -45 -25 -52 -18
-6 -36 37 -21 54 15 19 38 18 46 -2z m4619 -54 c-3 -11 -9 -29 -12 -40 -4 -17
-1 -20 25 -20 41 0 40 -18 -1 -22 l-33 -3 -20 -97 c-22 -109 -17 -127 29 -103
20 11 26 11 24 2 -11 -35 -109 -54 -121 -24 -2 7 4 52 14 101 11 50 20 97 22
105 1 10 -7 17 -20 19 -34 5 -28 20 10 24 24 2 33 8 35 25 2 13 13 30 25 38
28 19 29 19 23 -5z m1783 -22 c-5 -18 -9 -34 -9 -35 0 -2 11 -3 25 -3 14 0 25
-4 25 -10 0 -5 -11 -10 -25 -10 -26 0 -28 -4 -58 -136 -19 -80 -11 -94 40 -71
l38 18 -25 -20 c-43 -35 -76 -42 -101 -23 l-21 18 21 88 c26 110 26 122 -1
131 -23 7 -23 7 3 14 15 3 39 21 54 39 34 41 46 41 34 0z m-6161 -37 c16 -10
12 -53 -5 -59 -8 -2 -13 5 -13 16 0 25 -25 35 -51 22 -30 -16 -23 -52 17 -91
20 -18 39 -43 44 -54 12 -33 -9 -76 -46 -91 -62 -26 -105 -14 -119 34 -9 31
18 29 33 -3 19 -42 92 -30 92 16 0 9 -19 37 -42 64 -44 50 -53 90 -28 121 26
30 89 44 118 25z m312 -5 c14 -18 10 -58 -7 -64 -7 -2 -13 3 -13 11 0 7 -9 22
-19 31 -39 35 -90 -8 -116 -99 -28 -94 16 -140 91 -96 49 29 53 21 9 -18 -46
-40 -95 -42 -132 -5 -22 22 -25 32 -21 79 8 95 81 175 159 175 20 0 42 -7 49
-14z m312 -14 c32 -32 34 -98 6 -152 -50 -92 -149 -120 -210 -59 -28 27 -30
34 -24 77 7 55 45 115 89 143 40 25 110 21 139 -9z m187 6 c-9 -16 -8 -39 1
-95 7 -40 16 -76 21 -78 10 -7 76 85 84 117 4 14 2 36 -5 47 -9 17 -8 22 6 28
25 10 49 -11 47 -41 -1 -15 -19 -51 -40 -80 -85 -119 -116 -157 -123 -149 -4
4 -18 55 -30 113 -12 58 -28 115 -36 127 -13 21 -12 22 34 26 26 2 48 4 50 5
1 1 -2 -8 -9 -20z m435 6 c9 -8 16 -22 16 -31 0 -26 -65 -79 -122 -99 -44 -16
-54 -24 -56 -45 -4 -33 21 -59 55 -59 15 0 47 12 72 26 l46 27 -29 -31 c-55
-59 -149 -67 -182 -16 -23 34 -14 113 17 158 48 71 145 108 183 70z m165 7 c8
-5 11 -16 6 -30 -9 -30 6 -26 37 9 14 17 36 30 48 30 17 0 21 -5 18 -27 -3
-24 -7 -28 -37 -28 -45 0 -65 -29 -91 -129 -11 -44 -22 -81 -24 -83 -2 -3 -13
-3 -23 -1 -19 3 -19 6 5 112 18 78 22 111 14 114 -7 2 -12 10 -12 17 0 11 11
18 40 24 3 0 11 -3 19 -8z m892 -20 c61 -62 23 -187 -73 -237 -72 -38 -148 7
-148 88 0 56 27 105 79 146 56 42 101 43 142 3z m199 12 c0 -9 -7 -55 -17
-103 -9 -48 -13 -94 -10 -103 8 -22 36 -21 64 1 22 17 73 151 73 191 0 19 35
39 47 27 3 -2 -7 -49 -21 -104 -14 -54 -26 -106 -26 -116 0 -15 2 -15 31 0
l31 16 -18 -25 c-18 -25 -54 -47 -75 -47 -5 0 -14 11 -21 24 l-11 25 -32 -25
c-45 -34 -83 -31 -98 8 -3 9 5 60 17 114 23 93 23 97 5 101 -39 11 -16 27 44
32 10 0 17 -6 17 -16z m340 -8 c0 -14 4 -25 10 -25 5 0 17 11 26 25 29 44 85
27 62 -18 -7 -14 -16 -17 -38 -12 -22 5 -32 1 -49 -21 -21 -27 -61 -141 -61
-175 0 -14 -7 -19 -26 -19 -17 0 -24 4 -21 13 2 6 15 56 27 110 22 94 22 98 5
111 -18 13 -18 14 1 24 10 6 29 12 42 12 17 0 22 -6 22 -25z m994 19 c10 -4
16 -18 16 -36 0 -39 -43 -79 -112 -104 -58 -21 -69 -41 -44 -79 20 -31 59 -33
104 -5 44 27 37 3 -8 -27 -38 -26 -79 -29 -119 -8 -34 17 -41 33 -41 89 0 99
123 201 204 170z m209 -21 c-2 -13 2 -35 7 -49 l11 -27 25 24 c14 14 23 31 21
41 -6 22 16 40 44 36 32 -4 34 -22 3 -38 -14 -8 -39 -31 -55 -52 l-30 -37 27
-53 c14 -29 33 -61 42 -70 14 -17 12 -18 -38 -18 -45 0 -51 2 -38 13 14 11 14
16 -4 57 l-20 45 -24 -30 c-13 -16 -29 -42 -35 -56 -11 -28 -40 -42 -65 -32
-23 8 -11 26 29 46 20 9 48 35 63 56 l25 39 -25 51 c-15 28 -31 51 -36 51 -20
0 -9 19 13 23 45 9 62 3 60 -20z m1342 -3 c0 -21 -5 -25 -32 -26 -57 -1 -88
-45 -114 -158 -11 -49 -15 -56 -36 -56 -18 0 -23 4 -19 18 2 9 14 59 26 111
22 98 20 109 -20 112 -17 1 55 18 82 18 14 1 16 -5 12 -31 l-6 -33 37 38 c42
42 70 45 70 7z m253 18 c20 -20 14 -64 -14 -91 -14 -15 -51 -34 -82 -44 -63
-20 -74 -38 -47 -80 15 -22 22 -25 57 -20 22 3 49 14 60 24 21 18 21 18 9 -4
-33 -63 -146 -71 -176 -12 -36 69 0 167 78 213 45 28 95 34 115 14z m327 -5
c-17 -43 -54 -206 -49 -215 3 -5 12 -7 20 -4 23 9 16 -12 -11 -30 -32 -21 -55
-12 -55 22 l0 26 -35 -31 c-117 -102 -175 60 -67 186 37 43 84 63 146 63 51 0
57 -2 51 -17z m1163 5 c19 -19 14 -65 -10 -87 -11 -11 -44 -28 -72 -37 -28 -9
-57 -21 -63 -27 -22 -16 -15 -55 12 -73 31 -20 63 -13 106 23 29 24 31 25 20
5 -17 -33 -81 -72 -118 -72 -19 0 -43 9 -59 23 -58 50 -20 178 69 231 45 28
95 34 115 14z m322 2 c0 -5 -11 -55 -25 -112 -30 -124 -30 -121 -5 -108 24 13
26 3 3 -22 -20 -22 -63 -24 -63 -3 0 20 -9 19 -45 -5 -40 -26 -61 -25 -90 5
-32 31 -32 74 -1 140 27 58 51 82 99 99 42 14 127 18 127 6z m-7706 -27 c-3
-16 -17 -68 -30 -118 -13 -49 -24 -94 -24 -99 0 -4 12 -5 28 -2 l27 6 -28 -16
c-15 -8 -37 -12 -47 -9 -26 8 -26 44 1 141 11 41 18 82 15 90 -3 8 -18 15 -33
15 -22 2 -20 3 12 9 80 14 86 13 79 -17z m-864 -101 l0 -39 -97 4 c-54 2 -289
10 -522 18 -233 8 -426 17 -429 20 -3 3 78 5 179 6 101 1 317 7 479 14 162 6
316 13 343 13 l47 2 0 -38z m10185 18 c226 -6 464 -12 530 -13 66 -1 -109 -10
-390 -20 -280 -10 -536 -17 -567 -17 l-58 0 0 36 c0 36 0 36 38 30 20 -3 222
-10 447 -16z m-1140 -106 c18 -19 16 -33 -8 -48 -26 -16 -53 14 -38 43 14 25
24 26 46 5z m170 -24 c0 -28 -27 -39 -50 -20 -21 18 -1 52 28 48 16 -2 22 -10
22 -28z m171 15 c7 -18 -13 -45 -33 -45 -17 0 -27 24 -19 45 7 20 45 19 52 0z
m-4429 -793 c39 -28 63 -79 63 -135 0 -84 -68 -147 -161 -147 -153 0 -206 210
-73 288 49 29 126 26 171 -6z m-467 -82 c45 -45 13 -130 -50 -130 -67 0 -96
88 -44 129 34 26 68 27 94 1z m850 0 c26 -26 26 -81 0 -105 -46 -42 -120 -10
-120 51 0 61 78 96 120 54z m-1202 -106 c-2 -2 -112 1 -243 6 -570 23 -789 30
-925 31 -286 1 -228 15 95 23 176 4 489 15 695 24 l375 17 3 -49 c2 -26 2 -50
0 -52z m1923 81 c200 -8 489 -19 642 -24 153 -5 281 -12 284 -15 4 -3 -68 -6
-160 -6 -169 0 -1048 -26 -1169 -34 l-68 -5 0 50 0 49 54 0 c30 0 218 -7 417
-15z m-985 -2793 c29 -19 19 -72 -14 -72 -38 0 -53 37 -26 64 17 18 24 19 40
8z m-1782 -23 c108 -30 118 -161 16 -214 -33 -17 -116 -20 -125 -5 -4 6 5 10
20 10 34 0 82 25 95 49 33 63 -6 138 -77 148 -38 5 -43 3 -48 -18 -3 -13 -4
-96 -3 -184 3 -159 3 -159 28 -172 22 -11 15 -13 -60 -12 -69 0 -81 2 -62 11
31 15 33 31 30 213 -3 159 -3 159 -28 172 -22 11 -12 13 75 13 55 0 117 -5
139 -11z m457 -115 c23 -27 -2 -49 -51 -46 -63 4 -70 -6 -70 -111 0 -70 4 -95
17 -109 15 -17 13 -18 -53 -18 -65 0 -67 1 -46 16 20 14 22 23 22 119 0 96 -2
105 -22 119 -27 19 -23 23 30 32 38 6 42 5 42 -14 0 -33 15 -34 39 -2 24 34
70 41 92 14z m360 -10 c24 -22 43 -57 53 -98 l7 -29 -110 8 c-126 8 -137 1
-108 -60 30 -64 106 -88 162 -51 49 32 49 8 0 -29 -58 -45 -147 -33 -201 27
-61 66 -45 187 32 239 38 26 133 22 165 -7z m496 2 l28 -24 28 24 c41 35 108
34 136 -2 18 -23 21 -41 21 -130 0 -89 3 -106 19 -121 19 -18 18 -19 -45 -21
l-66 -3 22 29 c19 26 22 40 19 110 -5 91 -22 122 -70 122 -52 0 -69 -32 -69
-129 0 -73 3 -88 22 -108 l21 -23 -73 0 -73 0 27 21 c25 19 26 25 26 108 0
107 -13 131 -69 131 -61 0 -76 -25 -76 -125 0 -74 3 -86 24 -109 l24 -26 -74
1 c-70 0 -73 1 -51 16 20 14 22 23 22 124 0 108 0 110 -26 121 -23 11 -24 13
-7 19 34 14 83 10 83 -6 0 -20 9 -19 45 5 42 28 97 26 132 -4z m740 4 c3 -11
7 -20 10 -20 3 0 16 9 30 20 32 25 95 27 114 4 9 -11 16 -56 19 -133 3 -64 10
-124 14 -133 7 -16 2 -18 -50 -18 -56 0 -57 1 -36 16 20 14 22 23 22 114 0 95
-1 100 -25 116 -32 21 -68 12 -83 -21 -18 -39 -16 -180 3 -195 27 -23 16 -30
-47 -30 -62 0 -63 1 -40 18 22 17 23 23 20 127 -3 102 -4 110 -26 121 -22 11
-22 11 10 21 49 16 59 15 65 -7z m990 -4 l28 -24 28 24 c37 31 81 31 112 -1
23 -22 25 -31 25 -129 0 -97 2 -106 22 -120 16 -11 18 -16 8 -17 -15 -1 -87
-1 -104 0 -5 1 -2 9 7 19 13 14 17 39 17 110 0 87 -1 92 -25 108 -31 20 -71
12 -80 -17 -4 -11 -7 -59 -6 -106 0 -70 3 -87 18 -99 16 -12 13 -13 -29 -14
-25 0 -55 -3 -65 -7 -15 -5 -15 -2 5 19 19 21 22 35 22 113 0 98 -13 125 -58
125 -50 0 -62 -24 -62 -123 0 -79 3 -94 22 -114 l21 -23 -64 0 c-55 1 -62 2
-46 14 14 11 17 30 17 125 0 107 -1 112 -22 120 -23 9 -23 9 5 20 40 16 70 14
64 -3 -10 -25 5 -25 42 -1 45 31 62 31 98 1z m-1247 -115 c0 -123 1 -131 22
-145 21 -15 19 -16 -47 -16 -64 1 -68 2 -50 16 15 11 20 29 23 82 4 96 -8 154
-37 168 -28 14 -13 22 47 23 l42 1 0 -129z m681 21 c-3 -82 0 -107 13 -127 19
-29 60 -33 94 -9 20 14 22 23 22 110 0 91 -1 95 -25 106 -33 15 -15 28 38 28
l37 0 0 -125 c0 -114 2 -126 20 -137 32 -20 24 -28 -31 -28 -47 0 -51 2 -46
20 5 18 3 18 -25 -5 -39 -33 -90 -34 -123 0 -24 23 -25 31 -25 135 0 107 -1
112 -22 118 -21 5 -21 6 -2 13 10 5 33 7 49 6 l30 -2 -4 -103z m-5246 -1317
c0 -14 -6 -19 -21 -18 -16 2 -24 -5 -28 -23 -8 -31 -1 -44 25 -44 12 0 19 -7
19 -20 0 -13 -7 -20 -20 -20 -18 0 -20 -7 -20 -75 0 -74 0 -75 -26 -75 -26 0
-26 0 -22 75 2 53 0 75 -9 75 -21 0 -27 23 -10 35 10 7 17 24 17 39 0 35 43
78 73 74 14 -2 22 -10 22 -23z m-735 -77 c0 -51 3 -117 7 -147 l6 -54 -27 5
c-15 3 -40 1 -56 -5 -36 -14 -83 5 -99 39 -20 45 -14 99 15 128 29 28 81 35
102 14 9 -9 12 2 12 50 0 55 2 62 20 62 19 0 20 -7 20 -92z m3082 -53 c-2 -77
-5 -142 -8 -144 -3 -3 -13 0 -24 6 -14 10 -21 9 -31 -3 -13 -16 -53 -12 -78 9
-29 24 -42 75 -31 118 9 32 18 43 46 55 25 10 40 12 54 4 29 -15 30 -14 30 38
0 53 6 64 30 60 13 -3 15 -24 12 -143z m1848 79 l0 -65 22 15 c30 21 54 20 78
-4 16 -16 20 -33 20 -95 0 -68 -2 -75 -20 -75 -18 0 -20 7 -20 59 0 70 -6 91
-28 91 -34 0 -52 -31 -52 -92 0 -51 -2 -58 -20 -58 -19 0 -20 7 -20 145 0 138
1 145 20 145 18 0 20 -7 20 -66z m480 11 l0 -54 29 5 c40 8 68 -10 80 -51 11
-43 -1 -95 -29 -120 -20 -18 -98 -23 -122 -9 -8 5 -6 251 1 282 1 1 10 2 21 2
18 0 20 -7 20 -55z m3408 -93 c2 -137 2 -142 -18 -142 -19 0 -20 6 -20 138 0
76 3 142 7 146 21 21 28 -10 31 -142z m-9752 130 c6 -4 25 -33 41 -65 l29 -58
35 63 c24 44 41 64 57 66 12 2 22 0 22 -5 0 -4 -20 -42 -45 -83 -39 -65 -45
-83 -45 -131 0 -40 -4 -59 -14 -62 -21 -8 -26 2 -26 57 0 43 -8 63 -49 131
-27 44 -47 83 -44 88 5 9 25 9 39 -1z m4373 -11 c15 -27 -9 -46 -34 -27 -16
12 -17 16 -6 30 18 21 28 20 40 -3z m285 13 c21 -8 21 -40 0 -48 -21 -8 -34 1
-34 23 0 28 9 34 34 25z m5996 -134 c0 -133 -1 -140 -20 -140 -19 0 -20 7 -20
140 0 133 1 140 20 140 19 0 20 -7 20 -140z m240 13 c0 -71 -4 -133 -8 -140
-4 -6 -18 -11 -32 -12 -14 0 -39 -3 -57 -7 -27 -5 -37 -1 -63 24 -71 71 -5
206 84 172 15 -5 29 -10 32 -10 2 0 4 23 4 50 0 43 3 50 20 50 19 0 20 -7 20
-127z m98 105 c-2 -15 -10 -23 -23 -23 -13 0 -21 8 -23 23 -3 18 1 22 23 22
22 0 26 -4 23 -22z m-3410 -10 c-2 -13 -10 -23 -18 -23 -8 0 -16 10 -18 23 -3
17 2 22 18 22 16 0 21 -5 18 -22z m637 -19 c-5 -22 -3 -29 9 -29 9 0 16 -7 16
-15 0 -8 -7 -15 -15 -15 -13 0 -15 -12 -13 -67 l3 -68 50 0 c54 0 66 -15 45
-54 -16 -30 -30 -26 -30 10 0 29 -1 30 -22 15 -55 -39 -88 -7 -88 84 0 51 -4
69 -15 74 -21 8 -19 23 5 31 15 5 18 12 14 35 -5 22 -2 29 12 32 29 7 36 -1
29 -33z m-4935 -3 c0 -28 4 -35 23 -38 29 -4 29 -32 -1 -36 -21 -3 -23 -8 -20
-60 3 -54 5 -57 31 -60 29 -4 37 -26 11 -36 -53 -20 -84 14 -84 93 0 51 -3 61
-20 66 -11 3 -20 10 -20 15 0 5 9 12 20 15 15 5 20 15 20 41 0 27 4 34 20 34
16 0 20 -7 20 -34z m2450 -1 c0 -28 4 -35 20 -35 11 0 20 -4 20 -10 0 -5 0
-13 0 -17 0 -4 -10 -8 -22 -8 -20 0 -22 -4 -19 -55 3 -66 5 -70 37 -70 29 0
33 -26 4 -35 -20 -6 -59 9 -72 29 -4 6 -8 38 -8 70 0 44 -4 62 -17 72 -17 13
-17 15 0 25 12 7 16 17 12 30 -8 25 1 39 26 39 15 0 19 -7 19 -35z m-4332 -61
c12 -14 22 -38 22 -55 l0 -29 -65 0 c-50 0 -65 -3 -65 -15 0 -23 39 -38 81
-31 45 7 51 -6 14 -30 -33 -22 -88 -11 -114 22 -41 52 -35 129 12 152 55 26
80 23 115 -14z m2110 14 c20 -17 34 -57 26 -80 -5 -18 -12 -19 -64 -13 -66 8
-82 -3 -50 -35 19 -19 29 -21 71 -15 59 8 67 -9 13 -31 -86 -36 -164 40 -134
131 19 58 92 81 138 43z m700 -11 c27 -25 29 -63 3 -77 -11 -5 -43 -10 -71
-10 -48 0 -50 -1 -40 -20 17 -31 57 -47 81 -32 44 28 68 5 24 -24 -61 -40
-145 11 -145 87 0 52 14 78 52 94 37 15 65 10 96 -18z m3147 21 c15 -7 36 -33
51 -65 15 -29 28 -53 29 -53 2 0 11 22 20 49 19 57 40 80 57 63 8 -8 8 -15 1
-24 -5 -7 -27 -53 -47 -103 -46 -112 -61 -135 -87 -135 -11 0 -19 3 -17 8 2 4
14 28 28 55 l24 47 -29 58 c-27 52 -30 55 -33 30 -3 -27 -6 -28 -57 -28 -62 0
-71 -7 -48 -40 14 -19 22 -22 59 -16 47 6 63 -4 38 -25 -20 -17 -76 -17 -108
0 -49 27 -59 117 -17 155 35 32 95 43 136 24z m3175 -14 c11 -11 15 -36 15
-92 0 -70 -2 -77 -20 -78 -11 0 -32 -4 -47 -8 -16 -5 -35 -3 -50 5 -68 36 -44
105 41 116 44 6 50 13 27 32 -9 8 -28 10 -50 5 -29 -5 -36 -3 -36 10 0 34 88
41 120 10z m877 4 c7 -5 17 -26 24 -45 15 -45 4 -53 -73 -53 -62 0 -69 -7 -38
-35 15 -14 29 -16 65 -11 36 6 45 4 45 -7 0 -26 -56 -41 -100 -28 -48 14 -70
43 -70 92 0 79 89 132 147 87z m-11047 -8 c45 -45 38 -129 -13 -160 -18 -11
-45 -20 -60 -20 -34 0 -83 45 -93 85 -9 35 18 92 48 105 41 16 97 11 118 -10z
m112 -51 c2 -55 7 -74 21 -83 33 -21 51 4 57 80 5 62 7 69 28 72 20 3 22 -1
22 -46 0 -27 -3 -70 -6 -96 -6 -41 -10 -47 -26 -42 -11 2 -31 0 -44 -6 -31
-14 -83 7 -88 36 -9 45 -15 144 -9 150 3 3 14 6 24 6 15 0 19 -11 21 -71z
m584 56 c4 -9 -4 -25 -18 -38 -14 -13 -27 -30 -30 -38 -3 -8 -9 -10 -14 -6 -4
4 -3 17 4 27 16 25 15 30 -3 30 -18 0 -19 12 -3 28 17 17 58 15 64 -3z m164 6
c0 -5 -16 -18 -35 -30 -34 -20 -35 -22 -35 -86 0 -58 -2 -65 -20 -65 -19 0
-20 7 -20 89 0 57 4 91 11 93 24 8 99 7 99 -1z m610 -1 c0 -4 -17 -17 -37 -27
-38 -18 -38 -18 -41 -85 -2 -58 -6 -68 -21 -68 -17 0 -19 11 -23 88 -2 48 -3
90 -1 93 4 10 123 9 123 -1z m185 -16 c34 -37 34 -101 1 -137 -83 -89 -208 13
-151 123 17 34 27 38 83 39 34 1 48 -4 67 -25z m227 -45 c2 -55 7 -74 21 -83
33 -21 51 4 57 80 5 62 7 69 28 72 21 3 22 0 22 -70 0 -100 -6 -117 -39 -117
-14 1 -38 -2 -53 -6 -21 -6 -32 -2 -52 18 -23 23 -26 34 -26 102 0 68 2 75 20
75 17 0 19 -8 22 -71z m225 60 c8 -8 17 -8 31 0 56 30 99 5 108 -61 9 -67 -2
-118 -26 -118 -18 0 -20 7 -20 68 0 88 -27 116 -72 75 -14 -12 -18 -31 -18
-80 0 -56 -2 -63 -20 -63 -19 0 -20 7 -20 95 0 96 8 113 37 84z m334 -5 c14
-13 18 -13 29 1 15 19 70 20 95 1 14 -10 19 -30 23 -95 l5 -81 -26 0 c-26 0
-26 2 -29 78 -3 70 -5 77 -25 80 -33 5 -53 -33 -53 -100 0 -51 -2 -58 -20 -58
-17 0 -19 8 -22 71 -3 84 -21 107 -57 75 -17 -16 -21 -31 -21 -83 0 -56 -2
-63 -20 -63 -18 0 -20 7 -20 88 0 49 2 91 5 94 13 12 120 7 136 -8z m373 -27
c36 -75 -12 -150 -96 -150 l-38 0 0 -44 c0 -37 -3 -44 -17 -41 -16 3 -18 18
-21 128 -1 69 0 130 2 136 2 6 34 10 78 10 l73 -1 19 -38z m524 21 c3 -15 -3
-18 -44 -15 -60 3 -68 -16 -16 -42 50 -26 66 -45 58 -75 -12 -47 -115 -60
-124 -15 -2 12 6 16 39 15 51 -1 61 17 19 34 -42 18 -60 37 -60 65 0 39 26 56
79 53 34 -2 47 -7 49 -20z m685 8 c8 -21 -16 -39 -31 -24 -9 9 -12 8 -12 -5 0
-9 7 -17 15 -17 25 0 48 -46 41 -82 -8 -41 -23 -58 -52 -58 -32 0 -70 38 -54
54 8 8 15 7 24 -6 21 -28 46 -23 46 10 0 32 -14 57 -32 57 -14 0 -23 47 -14
71 7 18 62 18 69 0z m181 -8 c15 -25 1 -33 -34 -18 -24 10 -33 10 -45 0 -12
-10 -7 -17 33 -43 56 -38 67 -75 30 -101 -27 -20 -78 -21 -103 -3 -28 21 -11
38 25 24 24 -9 33 -8 46 4 14 15 14 18 -1 33 -9 9 -23 16 -30 16 -40 0 -62 79
-27 99 26 16 93 9 106 -11z m94 -75 c3 -88 2 -93 -18 -93 -18 0 -20 6 -20 64
0 35 -3 78 -6 96 -6 29 -5 31 17 28 23 -3 24 -7 27 -95z m199 85 c25 -21 34
-59 27 -120 -5 -47 -10 -58 -25 -58 -16 0 -19 10 -21 71 -2 55 -7 74 -20 83
-13 8 -23 8 -35 0 -14 -9 -19 -28 -21 -83 -3 -63 -5 -71 -22 -71 -18 0 -20 7
-20 89 0 57 4 91 11 93 29 10 113 7 126 -4z m253 -3 c0 -6 -4 -15 -9 -20 -5
-6 -11 -21 -13 -34 -4 -31 -43 -60 -92 -68 -31 -5 -42 -2 -52 12 -22 29 -17
73 10 100 22 22 33 24 90 23 40 -2 66 -7 66 -13z m75 5 c4 -7 12 -7 25 0 10 5
32 10 49 10 45 0 61 -30 61 -117 0 -66 -2 -73 -20 -73 -18 0 -20 7 -20 64 0
45 -5 69 -16 80 -39 39 -74 -1 -74 -85 0 -40 -4 -59 -14 -62 -23 -9 -26 2 -26
100 0 74 3 93 14 93 8 0 18 -5 21 -10z m329 -11 c19 -15 26 -30 26 -55 l0 -34
-65 0 c-49 0 -65 -3 -65 -14 0 -32 41 -45 93 -31 21 6 27 4 27 -9 0 -35 -78
-48 -119 -20 -13 9 -29 30 -35 46 -39 92 61 178 138 117z m629 9 c31 -16 46
-39 47 -70 0 -28 -1 -28 -65 -28 -68 0 -74 -4 -51 -35 11 -15 21 -17 60 -12
36 5 46 4 46 -8 0 -38 -92 -44 -132 -8 -47 42 -42 113 9 153 29 23 54 25 86 8z
m501 -14 c52 -53 24 -152 -48 -170 -57 -14 -116 38 -116 101 0 82 106 126 164
69z m214 14 c9 -9 15 -9 24 0 7 7 26 12 44 12 38 0 84 -47 84 -85 0 -67 -58
-121 -117 -110 l-33 6 0 -46 c0 -38 -3 -45 -20 -45 -19 0 -20 7 -20 133 0 147
6 167 38 135z m320 -5 c2 -8 -5 -13 -18 -13 -46 0 -58 -16 -66 -90 -6 -59 -9
-70 -25 -70 -17 0 -19 9 -19 88 0 49 2 91 5 94 11 11 118 3 123 -9z m402 -78
c0 -89 -1 -95 -20 -95 -19 0 -20 5 -15 88 2 48 5 90 5 95 0 4 7 7 15 7 12 0
15 -17 15 -95z m178 74 c2 -12 -3 -15 -21 -12 -40 8 -57 -20 -57 -93 0 -57 -2
-64 -20 -64 -18 0 -20 7 -20 88 0 49 2 91 5 93 2 3 28 5 57 4 40 0 53 -4 56
-16z m160 -1 c3 -14 -3 -15 -36 -11 -33 4 -42 2 -56 -18 -19 -27 -21 -80 -4
-97 17 -17 48 -15 70 5 25 22 45 5 29 -25 -16 -29 -70 -38 -109 -18 -61 31
-65 131 -8 172 29 20 110 15 114 -8z m164 5 c14 -13 18 -31 18 -93 l0 -77 -72
1 -73 1 -12 35 c-10 30 -9 38 7 54 10 10 38 20 64 23 25 3 46 9 46 13 0 19
-32 32 -65 27 -37 -6 -46 5 -17 22 27 16 83 13 104 -6z m535 2 c12 -8 27 -30
33 -49 33 -102 -105 -182 -171 -98 -29 38 -22 107 16 139 31 27 90 31 122 8z
m118 5 c4 -7 12 -7 25 0 50 27 98 -1 105 -61 15 -118 15 -119 -10 -119 -21 0
-23 6 -30 67 -9 83 -13 93 -36 93 -30 0 -49 -39 -49 -102 0 -51 -2 -58 -20
-58 -18 0 -20 7 -20 88 0 49 3 92 7 95 9 10 21 9 28 -3z m305 -5 c14 -17 11
-18 -40 -19 -26 -1 -35 -5 -35 -18 0 -10 16 -26 35 -37 41 -21 60 -62 41 -85
-18 -21 -77 -31 -107 -17 -38 17 -30 34 15 28 74 -10 79 16 10 51 -68 34 -42
112 37 112 17 0 37 -7 44 -15z m165 -5 c0 -9 -10 -15 -24 -16 -31 -2 -51 -29
-51 -70 0 -39 21 -58 55 -50 27 7 34 -11 13 -32 -18 -18 -52 -14 -82 9 -22 17
-26 28 -26 72 0 76 8 95 39 100 47 8 76 3 76 -13z m90 9 c6 0 26 4 47 7 31 5
38 3 54 -20 13 -22 16 -40 11 -93 -7 -73 -9 -78 -32 -70 -11 5 -15 22 -15 70
0 73 -15 96 -48 78 -16 -8 -21 -26 -27 -81 -6 -58 -10 -70 -25 -70 -16 0 -18
11 -22 88 -4 88 3 108 32 96 8 -4 20 -6 25 -5z m210 1 c4 -7 12 -7 25 0 57 31
120 -11 120 -80 0 -23 -5 -50 -10 -61 -16 -29 -67 -51 -100 -44 -28 6 -29 5
-32 -37 -2 -30 -8 -44 -19 -46 -14 -2 -17 15 -23 121 -3 69 -3 132 0 141 7 18
29 21 39 6z m457 -4 c21 -15 41 -64 34 -83 -4 -9 -26 -13 -76 -13 -38 0 -70
-4 -70 -8 0 -24 40 -44 82 -40 51 4 64 -12 24 -30 -38 -19 -92 -7 -122 25 -34
37 -34 104 1 138 27 28 97 34 127 11z m123 4 c4 -7 13 -6 27 1 36 19 43 -6 9
-30 -29 -21 -31 -27 -31 -80 0 -59 -17 -90 -40 -76 -11 7 -13 98 -4 158 6 35
25 49 39 27z m133 -2 c5 -7 18 -39 28 -70 10 -32 20 -58 23 -58 3 0 19 32 34
70 22 53 33 70 48 70 26 0 25 -5 -21 -105 -37 -80 -42 -86 -67 -83 -23 3 -30
12 -54 78 -14 41 -32 76 -38 78 -6 2 -11 10 -11 18 0 17 44 19 58 2z m762 -83
c0 -88 -1 -95 -20 -95 -19 0 -20 7 -20 95 0 88 1 95 20 95 19 0 20 -7 20 -95z
m212 78 c14 -13 18 -32 18 -95 0 -71 -2 -78 -20 -78 -17 0 -19 8 -22 71 -2 55
-7 74 -20 83 -13 8 -23 8 -35 0 -14 -9 -19 -28 -21 -83 -3 -68 -4 -72 -25 -69
-20 3 -22 10 -25 73 -5 108 -3 110 69 112 47 2 68 -2 81 -14z m413 -3 c0 -11
-10 -14 -42 -12 -59 5 -59 -22 1 -48 46 -19 62 -45 51 -81 -13 -40 -88 -51
-126 -20 -22 18 -22 20 -7 26 10 4 31 2 47 -3 23 -8 32 -7 42 4 14 18 13 19
-42 47 -49 25 -63 62 -33 91 22 22 109 19 109 -4z m-10568 -87 c-15 -16 -17
-16 -17 -1 0 9 6 18 13 21 20 7 22 -2 4 -20z m23 -51 c0 -26 -20 -42 -51 -42
-31 0 -64 30 -33 30 11 1 30 7 44 15 33 19 40 18 40 -3z m10640 3 c0 -31 -34
-85 -53 -85 -14 0 -17 4 -12 18 5 9 13 32 19 50 11 33 46 46 46 17z m-6668 -5
c77 0 104 -52 52 -101 -35 -33 -113 -34 -145 -2 -21 20 -21 24 -9 68 11 40 16
46 34 41 12 -3 42 -6 68 -6z m-1343 -502 c0 -62 -23 -221 -32 -236 -6 -9 -13
-10 -21 -3 -9 7 -22 7 -44 -1 -67 -26 -116 57 -77 131 20 39 47 53 93 49 37
-3 37 -3 40 37 4 53 8 65 27 65 11 0 15 -11 14 -42z m3979 15 c3 -17 -2 -23
-16 -23 -24 0 -46 25 -37 40 12 19 50 7 53 -17z m-3543 -14 c0 -15 -7 -25 -18
-27 -22 -4 -33 24 -17 43 18 21 35 13 35 -16z m1215 22 c0 -5 -6 -24 -14 -43
-8 -18 -22 -71 -30 -118 -9 -46 -20 -88 -24 -92 -5 -5 -31 -11 -58 -14 -64 -8
-98 16 -98 69 0 48 19 81 61 104 32 17 35 17 63 1 34 -19 33 -20 50 50 9 40
16 52 31 52 10 0 19 -4 19 -9z m1230 -6 c10 -12 10 -18 0 -29 -14 -18 -40 -10
-40 13 0 32 20 40 40 16z m1566 4 c3 -6 -1 -18 -9 -27 -13 -12 -19 -13 -31 -3
-8 7 -12 19 -9 27 6 17 39 19 49 3z m-3734 -41 c-21 -21 -52 -20 -52 2 0 27
31 43 50 25 11 -12 11 -18 2 -27z m586 30 c18 -18 14 -38 -7 -38 -22 0 -45 25
-36 40 8 13 28 13 43 -2z m112 -13 c0 -27 -25 -44 -40 -29 -15 15 0 54 21 54
14 0 19 -7 19 -25z m2350 3 c-1 -13 -7 -52 -15 -88 -8 -36 -14 -78 -15 -94 0
-26 3 -28 30 -24 37 6 39 -6 5 -28 -39 -25 -75 -6 -75 40 0 30 24 170 35 204
7 22 35 14 35 -10z m115 -5 c-13 -54 -25 -139 -25 -185 0 -52 -9 -64 -33 -45
-15 11 -15 21 -2 112 21 141 22 145 46 145 18 0 20 -4 14 -27z m-1871 11 c9
-3 16 -15 16 -26 0 -17 -4 -19 -22 -13 -67 21 -87 18 -123 -18 -80 -80 -15
-187 89 -147 29 10 36 -6 14 -28 -16 -16 -86 -15 -117 1 -58 30 -82 118 -47
172 32 49 134 80 190 59z m2359 -64 c6 -23 -16 -45 -38 -36 -15 5 -21 37 -8
49 13 14 41 6 46 -13z m-4015 -20 c3 -9 -2 -11 -18 -7 -27 7 -60 -8 -60 -27 0
-8 13 -19 30 -26 33 -14 45 -39 36 -76 -12 -46 -106 -58 -106 -13 0 12 4 17
11 14 16 -11 59 4 59 20 0 8 -13 21 -30 30 -67 35 -18 129 54 105 11 -4 22
-13 24 -20z m280 15 c9 -9 -42 -106 -61 -117 -11 -5 -34 -7 -53 -3 -27 5 -34
3 -34 -10 0 -8 6 -15 13 -15 8 0 7 -3 -2 -9 -10 -6 0 -8 27 -4 99 13 131 -90
36 -116 -48 -13 -87 -4 -116 26 -22 24 -22 25 -5 54 10 19 17 52 17 83 0 57
23 99 64 117 20 8 104 4 114 -6z m2252 -4 c-1 -3 -9 -44 -18 -91 -13 -60 -22
-85 -32 -85 -17 0 -17 -5 -6 100 4 44 13 83 19 87 11 7 37 0 37 -11z m-2700
-11 c11 -11 20 -33 20 -50 0 -36 -27 -46 -96 -36 -39 5 -45 3 -42 -11 2 -10
15 -24 30 -32 22 -13 33 -13 58 -4 35 13 45 4 26 -23 -10 -13 -27 -19 -55 -19
-89 0 -129 100 -66 165 35 37 93 42 125 10z m534 5 c5 -14 8 -14 31 1 30 19
71 12 77 -14 3 -9 2 -49 -1 -87 -5 -56 -10 -70 -23 -73 -16 -3 -18 6 -18 73 0
59 -3 77 -15 82 -33 12 -60 -32 -80 -129 -4 -19 -12 -28 -25 -28 -24 0 -24 -4
-5 95 14 70 25 94 46 95 4 0 10 -7 13 -15z m300 -1 c19 -19 30 -58 22 -79 -4
-11 -22 -15 -71 -15 -69 0 -77 -6 -45 -35 19 -17 42 -17 83 0 11 5 17 3 17 -7
0 -25 -23 -38 -66 -38 -97 0 -128 129 -43 176 33 18 84 17 103 -2z m307 6 c13
-7 19 -7 19 0 0 5 9 10 20 10 18 0 20 -7 20 -55 0 -49 -4 -60 -34 -93 -31 -33
-39 -37 -82 -36 -38 1 -52 6 -71 28 -34 40 -30 81 11 122 36 36 78 44 117 24z
m864 -6 c15 -11 20 -27 20 -65 0 -45 -4 -54 -33 -80 -55 -49 -125 -35 -152 31
-15 37 -1 80 38 110 30 24 98 26 127 4z m202 -14 c16 -31 16 -74 0 -120 -13
-37 -46 -51 -37 -15 2 11 4 42 5 69 0 36 -5 51 -18 60 -27 16 -53 -21 -61 -88
-7 -49 -27 -79 -40 -58 -5 8 12 161 19 172 2 3 30 6 61 5 52 0 60 -3 71 -25z
m171 12 c2 -7 -7 -16 -20 -21 -35 -13 -47 -32 -58 -91 -12 -61 -14 -65 -33
-57 -12 4 -13 16 -6 59 5 29 12 68 15 87 5 28 9 32 29 29 13 -3 30 -1 37 3 16
11 30 7 36 -9z m204 -12 c49 -60 -9 -160 -91 -160 -101 0 -126 116 -38 171 41
26 104 20 129 -11z m318 12 c43 -35 25 -129 -32 -158 -38 -19 -71 -18 -101 6
-70 55 -20 170 74 170 20 0 47 -8 59 -18z m135 8 c13 21 64 11 81 -16 15 -22
16 -33 5 -95 -12 -62 -25 -82 -43 -64 -2 3 -1 33 4 67 7 50 5 65 -6 77 -12 11
-20 12 -40 3 -18 -8 -27 -23 -35 -62 -6 -28 -11 -58 -11 -65 0 -9 -9 -15 -21
-15 -17 0 -20 5 -16 23 3 12 9 45 13 72 9 70 20 88 44 75 12 -7 21 -7 25 0z
m272 -12 c25 -28 34 -53 27 -73 -5 -11 -22 -15 -70 -15 -50 0 -64 -3 -64 -15
0 -31 64 -45 100 -23 29 18 39 -1 11 -23 -57 -47 -151 -7 -151 63 1 86 96 142
147 86z m581 10 c6 -7 13 -30 17 -50 l7 -38 -65 0 c-73 0 -88 -11 -61 -42 19
-20 51 -21 97 -3 12 5 17 2 17 -9 0 -19 -38 -36 -81 -36 -20 0 -40 10 -60 29
-63 64 -19 161 74 161 25 0 49 -6 55 -12z m200 -11 c3 -16 -1 -18 -27 -12 -25
5 -35 2 -56 -19 -45 -45 -24 -96 41 -96 23 0 34 -5 34 -14 0 -42 -101 -22
-125 24 -27 53 -17 87 35 123 33 23 93 19 98 -6z m164 -2 c-1 -11 -5 -50 -9
-87 -5 -56 -9 -68 -24 -68 -15 0 -17 9 -13 88 2 48 3 88 4 90 0 2 10 2 23 0
15 -2 21 -9 19 -23z m203 0 c60 -59 7 -165 -81 -165 -34 0 -84 51 -84 85 0 88
106 140 165 80z m201 17 c24 -16 35 -53 29 -100 -10 -71 -15 -83 -33 -80 -13
3 -16 17 -17 72 0 55 -4 71 -18 80 -27 16 -54 -22 -62 -89 -7 -56 -19 -75 -36
-58 -11 11 9 165 23 174 14 9 101 10 114 1z m-4412 -38 c-18 -98 -30 -138 -43
-142 -11 -4 -12 11 -6 79 8 96 9 99 36 99 17 0 19 -4 13 -36z m3915 -41 c-1
-21 2 -46 6 -55 9 -23 -19 -35 -40 -18 -11 9 -12 17 -5 30 6 10 10 29 10 43 0
13 3 27 7 30 15 16 24 5 22 -30z m-733 -58 c7 -18 -13 -45 -33 -45 -17 0 -27
24 -19 45 7 20 45 19 52 0z m1344 0 c15 -18 5 -35 -21 -35 -12 0 -19 7 -19 18
0 33 20 42 40 17z m-3270 -25 c0 -23 -13 -32 -34 -24 -19 7 -21 25 -5 41 16
16 39 5 39 -17z"/>
<path d="M8064 16218 c-3 -5 -9 -6 -14 -3 -5 3 -9 -16 -8 -42 0 -36 3 -43 9
-27 4 12 13 25 20 30 9 5 10 2 6 -9 -3 -10 -2 -17 3 -17 5 0 11 -8 13 -17 3
-10 5 3 4 28 0 25 2 50 6 55 3 5 -3 10 -14 10 -11 0 -23 -4 -25 -8z"/>
<path d="M8125 16201 c3 -6 -1 -11 -12 -11 -15 0 -15 -2 4 -15 16 -11 28 -13
48 -5 14 5 39 11 55 12 38 3 40 15 3 15 -16 0 -45 3 -67 7 -26 5 -36 4 -31 -3z"/>
<path d="M8251 16176 c-13 -7 -31 -12 -40 -11 -9 1 -10 0 -3 -2 12 -5 16 -22
13 -60 -2 -26 11 -30 28 -9 9 11 9 15 -1 19 -8 3 -6 6 5 6 15 1 16 5 7 21 -13
25 5 27 19 3 6 -10 11 -13 11 -6 0 6 14 15 32 18 22 5 27 10 17 15 -30 16 -65
18 -88 6z m54 -6 c18 -8 17 -9 -7 -9 -16 -1 -28 4 -28 9 0 12 8 12 35 0z"/>
<path d="M8255 16088 c-2 -7 -6 -78 -10 -158 -3 -80 -17 -318 -31 -530 -13
-212 -40 -635 -59 -940 -19 -305 -40 -617 -46 -694 -5 -76 -9 -139 -7 -140 2
-2 59 -22 128 -46 536 -185 985 -428 1361 -736 184 -151 442 -432 525 -573 10
-17 21 -31 25 -31 4 0 9 658 11 1463 3 1455 3 1462 -17 1485 -28 33 -248 194
-380 278 -387 248 -882 464 -1379 603 -127 36 -116 34 -121 19z"/>
<path d="M12070 16054 c-327 -90 -746 -256 -1038 -410 -244 -129 -495 -291
-637 -413 l-69 -59 2 -1368 c2 -1287 6 -1555 21 -1553 3 0 29 33 58 73 66 93
250 302 339 386 103 97 344 288 466 369 300 199 719 394 1088 505 l86 26 -8
87 c-4 49 -12 162 -17 253 -23 348 -101 1511 -110 1630 -6 69 -16 212 -22 318
-8 123 -16 192 -23 191 -6 0 -67 -16 -136 -35z"/>
<path d="M11991 12944 c0 -11 3 -14 6 -6 3 7 2 16 -1 19 -3 4 -6 -2 -5 -13z"/>
<path d="M12150 12751 c0 -6 4 -13 10 -16 6 -3 7 1 4 9 -7 18 -14 21 -14 7z"/>
<path d="M12070 12728 c0 -4 16 -8 35 -8 19 0 35 2 35 4 0 2 -16 6 -35 8 -19
2 -35 0 -35 -4z"/>
<path d="M12225 12700 c3 -5 8 -10 11 -10 2 0 4 5 4 10 0 6 -5 10 -11 10 -5 0
-7 -4 -4 -10z"/>
<path d="M12167 12693 c-10 -10 -8 -23 4 -23 5 0 8 4 4 9 -3 5 3 12 12 14 14
4 15 5 2 6 -9 0 -19 -2 -22 -6z"/>
<path d="M12075 12630 c-3 -5 1 -10 10 -10 9 0 13 5 10 10 -3 6 -8 10 -10 10
-2 0 -7 -4 -10 -10z"/>
<path d="M10880 12250 c0 -5 5 -10 11 -10 5 0 7 5 4 10 -3 6 -8 10 -11 10 -2
0 -4 -4 -4 -10z"/>
<path d="M4432 10411 c-18 -5 -35 -10 -37 -12 -6 -7 -9 -459 -3 -465 3 -3 43
-5 88 -5 138 0 226 55 257 160 27 96 2 211 -59 268 -49 46 -171 72 -246 54z"/>
<path d="M4380 9633 c0 -281 4 -298 80 -321 67 -20 169 -9 230 24 96 52 135
135 128 267 -10 188 -115 267 -353 267 l-85 0 0 -237z"/>
<path d="M5730 10301 c-138 -45 -230 -143 -276 -296 -23 -75 -26 -283 -5 -365
75 -299 311 -440 547 -325 144 71 225 238 225 465 0 246 -82 415 -239 492 -56
28 -79 33 -147 35 -44 1 -91 -1 -105 -6z"/>
<path d="M7113 10296 c-60 -19 -104 -49 -156 -105 -56 -60 -83 -111 -108 -208
-68 -267 36 -567 232 -669 48 -26 64 -29 149 -29 76 0 104 4 142 22 58 26 128
90 167 151 69 109 97 304 67 461 -44 235 -184 380 -374 388 -47 2 -93 -3 -119
-11z"/>
<path d="M11153 10296 c-187 -61 -287 -229 -287 -481 1 -185 52 -332 148 -429
82 -82 130 -101 251 -101 93 0 104 2 161 32 94 49 149 119 196 253 26 72 35
258 18 358 -14 84 -71 208 -124 269 -56 64 -148 106 -244 110 -47 2 -93 -3
-119 -11z"/>
<path d="M13618 9283 c12 -2 32 -2 45 0 12 2 2 4 -23 4 -25 0 -35 -2 -22 -4z"/>
<path d="M13618 9263 c12 -2 32 -2 45 0 12 2 2 4 -23 4 -25 0 -35 -2 -22 -4z"/>
<path d="M14590 10281 l-25 -7 0 -234 0 -235 80 1 c174 2 278 95 279 249 1
115 -52 189 -156 220 -53 15 -134 18 -178 6z"/>
<path d="M14096 8244 c-37 -35 -56 -82 -56 -139 0 -39 4 -47 25 -57 30 -13 48
-1 75 51 21 43 44 146 35 161 -11 18 -50 10 -79 -16z"/>
<path d="M5782 8398 c-10 -12 -82 -322 -82 -352 0 -4 29 -6 65 -4 53 3 71 9
102 35 102 82 117 251 28 309 -35 23 -98 30 -113 12z"/>
<path d="M13095 8378 c-34 -152 -35 -148 18 -148 34 0 49 6 71 28 61 65 38
142 -44 142 -33 0 -40 -4 -45 -22z"/>
<path d="M6970 8267 c-71 -36 -103 -208 -43 -231 27 -11 74 24 94 70 42 93 10
191 -51 161z"/>
<path d="M7602 8254 c-22 -15 -52 -63 -52 -84 0 -16 30 -12 66 11 43 26 60 55
43 75 -15 18 -29 18 -57 -2z"/>
<path d="M8638 8247 c-34 -28 -57 -75 -64 -131 -5 -36 -3 -47 15 -65 11 -11
29 -21 39 -21 51 0 101 81 102 162 0 75 -40 99 -92 55z"/>
<path d="M10171 8225 c-50 -58 -35 -83 29 -50 35 18 60 52 53 71 -10 26 -50
15 -82 -21z"/>
<path d="M11998 8254 c-28 -15 -58 -61 -58 -89 0 -18 2 -19 43 -1 42 18 80 59
75 82 -4 24 -26 27 -60 8z"/>
<path d="M12315 8270 c-87 -36 -146 -220 -70 -220 45 0 100 97 107 189 3 37
-6 44 -37 31z"/>
<path d="M13476 8240 c-19 -17 -39 -44 -45 -61 -10 -28 -9 -30 12 -23 72 22
122 72 102 103 -11 18 -33 12 -69 -19z"/>
<path d="M13768 8247 c-49 -41 -84 -150 -58 -182 17 -20 53 -19 72 3 20 22 58
138 58 174 0 22 -5 28 -22 28 -13 0 -35 -10 -50 -23z"/>
<path d="M9312 4203 c-13 -5 -42 -55 -42 -73 0 -6 31 -10 81 -10 70 0 80 2 75
16 -3 9 -6 20 -6 25 0 33 -66 59 -108 42z"/>
<path d="M5002 2674 c-45 -31 -19 -114 36 -114 28 0 45 35 38 78 -8 52 -34 64
-74 36z"/>
<path d="M8082 2677 c-21 -25 -25 -66 -8 -92 20 -30 61 -33 76 -6 14 27 13 84
-2 99 -16 16 -53 15 -66 -1z"/>
<path d="M10536 2674 c-9 -9 -16 -32 -16 -54 0 -86 72 -86 78 -1 5 63 -27 91
-62 55z"/>
<path d="M14943 2655 c-19 -40 -9 -76 27 -95 17 -9 24 -7 45 14 29 29 32 62 9
94 -24 35 -61 29 -81 -13z"/>
<path d="M5490 2675 c-17 -21 -4 -35 35 -35 19 0 37 5 40 10 10 16 -14 40 -40
40 -12 0 -28 -7 -35 -15z"/>
<path d="M7616 2684 c-28 -28 -20 -44 23 -44 48 0 58 13 31 40 -24 24 -34 25
-54 4z"/>
<path d="M8302 2678 c-24 -24 -13 -38 27 -38 44 0 59 13 41 35 -15 18 -52 19
-68 3z"/>
<path d="M11448 2678 l-23 -23 44 -3 c50 -4 71 9 51 33 -18 21 -46 19 -72 -7z"/>
<path d="M14632 2604 c-18 -13 -21 -19 -11 -30 25 -31 89 -5 75 31 -7 19 -36
19 -64 -1z"/>
<path d="M15500 2671 c-15 -30 -14 -31 40 -31 34 0 50 4 50 13 0 38 -71 52
-90 18z"/>
<path d="M4440 2663 c-30 -39 -13 -98 30 -103 35 -5 48 2 60 31 11 26 10 36
-3 65 -21 43 -56 46 -87 7z"/>
<path d="M6096 2668 c-45 -64 27 -146 77 -90 34 38 9 112 -38 112 -13 0 -31
-10 -39 -22z"/>
<path d="M7240 2664 c-23 -58 -7 -104 35 -104 31 0 55 31 55 71 0 42 -15 59
-52 59 -21 0 -31 -6 -38 -26z"/>
<path d="M9176 2675 c-20 -21 -21 -54 -1 -61 24 -10 67 24 63 49 -4 27 -39 34
-62 12z"/>
<path d="M9611 2671 c-14 -25 -5 -31 41 -31 24 0 38 5 38 13 0 37 -62 51 -79
18z"/>
<path d="M10267 2667 l-22 -22 44 -3 c49 -4 54 -1 46 21 -10 25 -44 28 -68 4z"/>
<path d="M10726 2668 c-45 -64 27 -146 77 -90 34 38 9 112 -38 112 -13 0 -31
-10 -39 -22z"/>
<path d="M11069 2669 c-15 -15 -19 -30 -17 -62 3 -39 5 -42 34 -45 40 -4 64
19 64 63 0 35 -21 65 -46 65 -8 0 -23 -9 -35 -21z"/>
<path d="M12182 2611 c-22 -13 -10 -46 18 -49 24 -4 50 19 50 45 0 15 -47 18
-68 4z"/>
<path d="M12716 2674 c-23 -22 -30 -62 -17 -90 8 -19 18 -24 45 -24 39 0 56
20 56 65 0 59 -47 86 -84 49z"/>
<path d="M13712 2678 c-7 -7 -12 -30 -12 -53 0 -47 13 -65 50 -65 36 0 50 17
50 60 0 56 -54 92 -88 58z"/>
<path d="M14052 2678 c-26 -26 -13 -38 38 -38 34 0 50 4 50 13 0 21 -22 37
-50 37 -14 0 -31 -5 -38 -12z"/>
<path d="M9160 2520 c-24 -15 1 -44 42 -48 46 -4 72 23 43 44 -22 16 -63 18
-85 4z"/>
<path d="M7750 1948 c-24 -26 -27 -80 -4 -99 25 -21 67 8 78 53 16 63 -31 92
-74 46z"/>
<path d="M9366 1941 c-12 -13 -16 -32 -14 -58 3 -32 7 -38 29 -41 46 -5 86 69
54 102 -22 21 -48 20 -69 -3z"/>
<path d="M8404 1970 c-12 -5 -25 -13 -28 -19 -8 -12 15 -51 30 -51 13 0 54 43
54 57 0 9 -25 25 -33 22 -1 0 -12 -4 -23 -9z m23 -46 c-3 -3 -12 -4 -19 -1 -8
3 -5 6 6 6 11 1 17 -2 13 -5z"/>
<path d="M8341 1786 c-16 -20 18 -38 62 -34 24 2 33 8 35 26 3 20 -1 22 -41
22 -26 0 -49 -6 -56 -14z"/>
<path d="M7962 1958 c-22 -22 -13 -38 21 -38 41 0 62 13 54 34 -7 19 -57 22
-75 4z"/>
<path d="M8802 1958 c-25 -25 -13 -38 33 -38 30 0 45 4 45 13 0 19 -21 37 -45
37 -12 0 -26 -5 -33 -12z"/>
<path d="M9115 1945 c-29 -28 -31 -51 -9 -83 20 -29 49 -28 79 3 31 30 34 80
6 95 -30 16 -50 12 -76 -15z"/>
<path d="M9961 1951 c-29 -29 -28 -86 0 -101 32 -17 65 -4 79 31 28 67 -31
118 -79 70z"/>
<path d="M10525 1945 c-14 -13 -25 -35 -25 -48 0 -29 29 -57 58 -57 52 0 82
79 44 113 -26 24 -49 21 -77 -8z"/>
<path d="M10858 1953 c-34 -40 -28 -95 11 -108 49 -15 95 56 66 102 -18 27
-56 30 -77 6z"/>
<path d="M11283 1958 c-27 -35 -25 -38 26 -38 53 0 62 8 35 34 -19 19 -48 21
-61 4z"/>
<path d="M11851 1951 c-13 -24 -5 -31 34 -31 17 0 35 3 38 6 13 13 -14 44 -38
44 -13 0 -29 -8 -34 -19z"/>
<path d="M12415 1950 c-34 -38 -17 -110 26 -110 49 0 78 80 41 113 -25 22 -45
21 -67 -3z"/>
</g>
</svg>